<svg width="808" height="126" xmlns="http://www.w3.org/2000/svg" xmlns:xlink="http://www.w3.org/1999/xlink" xml:space="preserve" overflow="hidden"><defs><clipPath id="clip0"><rect x="428" y="194" width="808" height="126"/></clipPath></defs><g clip-path="url(#clip0)" transform="translate(-428 -194)"><path d="M856.706 269.545C851.858 269.524 844.609 269.502 835.794 269.493 831.589 269.493 828.299 269.532 825.661 269.58 819.379 269.701 814.219 269.576 813.338 269.563 803.775 269.437 789.667 264.94 781.272 260.957 753.041 247.565 751.864 222.048 736.112 219.542 709.307 215.282 694.171 286.21 660.234 288.115 638.145 289.353 624.447 260.126 609.38 243.686 580.787 212.482 516.219 193.059 353.727 258.806" stroke="#FFB005" stroke-width="6.40624" stroke-miterlimit="10" fill="none"/><path d="M826.103 269.433 807.97 269.433C784.026 269.433 783.558 269.433 783.001 269.433 759.392 269.559 741.854 278.294 723.982 280.635 698.374 283.994 681.986 272.922 654.749 263.399 654.749 263.399 591.74 241.366 519.693 248.751 454.77 255.404 408.776 290.479 384.637 313.381" stroke="#FF4F14" stroke-width="6.40624" stroke-miterlimit="10" fill="none"/><path d="M838.196 269.502C824.478 269.502 810.756 269.731 797.042 269.502 794.556 269.459 787.498 269.324 778.418 271.195 778.418 271.195 775.101 271.878 772.026 272.779 755.381 277.644 743.203 296.118 727.524 300.192 715.864 303.217 705.408 297.465 701.152 295.127 673.985 280.185 680.26 242.79 662.555 227.225 636.28 204.128 580.134 249.262 524.358 274.857 481.22 294.651 415.292 313.325 321 300.728" stroke="#7D6BD9" stroke-width="6.40624" stroke-miterlimit="10" fill="none"/><path d="M1232.93 269.515C1100.31 269.515 976.165 269.515 843.549 269.515L807.675 269.515C799.437 269.506 793.42 269.489 788.992 269.476 778.299 269.441 776.872 269.472 775.968 269.476 765.212 269.571 753.341 270.234 749.202 270.805 731.794 273.203 727.191 291.097 711.454 303.256 678.161 328.977 625.592 305.395 612.416 299.486 601.964 294.798 590.596 286.466 568.281 269.995 525.034 238.072 507.344 221.126 496.487 213.447 470.333 194.938 422.418 186.748 326.797 235.769" stroke="#00E5B8" stroke-width="6.40624" stroke-miterlimit="10" fill="none"/><path d="M1236.2 269.083C1236.2 273.162 1232.89 276.469 1228.81 276.469 1224.74 276.469 1221.43 273.162 1221.43 269.083 1221.43 265.005 1224.74 261.698 1228.81 261.698 1232.89 261.698 1236.2 265.005 1236.2 269.083Z" fill="#00E5B8"/></g></svg>