<svg width="184" height="42" viewBox="0 0 184 42" fill="none" xmlns="http://www.w3.org/2000/svg">
<g clip-path="url(#clip0_53_1163)">
<path d="M55.1454 19.3252L52.1816 18.3896C51.4668 18.1765 50.9341 17.8569 50.5854 17.4307C50.2348 17.0045 50.0604 16.5183 50.0604 15.972C50.0604 15.5013 50.1786 15.0867 50.4149 14.7303C50.6493 14.3739 50.9806 14.0988 51.4067 13.909C51.8329 13.7191 52.3269 13.6242 52.8887 13.6242C53.8166 13.6242 54.6321 13.8683 55.3392 14.3545C56.0462 14.8407 56.5673 15.5323 56.9005 16.4292L59.136 15.449C58.8628 14.6276 58.425 13.907 57.8245 13.2833C57.224 12.6595 56.5053 12.1694 55.6704 11.813C54.8336 11.4565 53.9076 11.2764 52.8887 11.2764C51.8697 11.2764 50.8779 11.4817 50.0488 11.8924C49.2197 12.3031 48.5708 12.8687 48.0981 13.5913C47.6274 14.3138 47.391 15.1526 47.391 16.1115C47.391 17.206 47.7262 18.161 48.3945 18.9727C49.0628 19.7863 50.0372 20.3906 51.3138 20.7858L54.5062 21.7893C55.19 22.0024 55.7072 22.291 56.0559 22.6552C56.4046 23.0194 56.5809 23.5133 56.5809 24.1371C56.5809 24.5923 56.455 24.9952 56.2051 25.3459C55.9532 25.6965 55.6007 25.9658 55.1454 26.1556C54.6902 26.3454 54.1575 26.4404 53.5492 26.4404C52.5148 26.4404 51.6024 26.1595 50.812 25.5958C50.0217 25.034 49.4212 24.2281 49.0105 23.1782L46.7305 24.1352C47.0346 25.0476 47.5053 25.8534 48.1446 26.5527C48.7838 27.252 49.5587 27.8041 50.4711 28.2051C51.3835 28.608 52.3714 28.8095 53.4349 28.8095C54.5759 28.8095 55.5794 28.6003 56.4453 28.1819C57.3112 27.7634 57.9911 27.19 58.487 26.4597C58.981 25.7294 59.2289 24.8945 59.2289 23.9511C59.2289 22.8101 58.8861 21.8571 58.2023 21.09C57.5184 20.3228 56.4995 19.734 55.1474 19.3233L55.1454 19.3252Z" fill="black"/>
<path d="M64.2131 11.5493H61.6367V14.5132H64.2131V11.5493Z" fill="black"/>
<path d="M64.2131 16.2021H61.6367V28.5379H64.2131V16.2021Z" fill="black"/>
<path d="M82.8569 16.522C82.1654 16.1268 81.3944 15.9292 80.542 15.9292C79.5696 15.9292 78.7056 16.1733 77.954 16.6595C77.4368 16.9946 77.0125 17.4518 76.6774 18.0233C76.3907 17.5099 75.9897 17.0721 75.4686 16.7157C74.7015 16.1907 73.8221 15.9292 72.8341 15.9292C71.9527 15.9292 71.1701 16.1423 70.4863 16.5665C70.0233 16.8552 69.6591 17.2406 69.3918 17.7172V16.2023H66.9297V28.5381H69.5061V21.2641C69.5061 20.6558 69.6165 20.1309 69.8373 19.6911C70.0582 19.2514 70.3662 18.9124 70.7614 18.6761C71.1565 18.4417 71.6118 18.3235 72.129 18.3235C72.6462 18.3235 73.1208 18.4417 73.5082 18.6761C73.8957 18.9124 74.1998 19.2456 74.4206 19.6795C74.6415 20.1134 74.7519 20.6423 74.7519 21.2641V28.5381H77.3051V21.2641C77.3051 20.6558 77.4193 20.1309 77.6479 19.6911C77.8765 19.2514 78.1865 18.9124 78.5836 18.6761C78.9787 18.4417 79.434 18.3235 79.9512 18.3235C80.4684 18.3235 80.9198 18.4417 81.3072 18.6761C81.6946 18.9124 81.9988 19.2456 82.2196 19.6795C82.4404 20.1134 82.5509 20.6423 82.5509 21.2641V28.5381H85.1273V20.557C85.1273 19.6601 84.9219 18.862 84.5112 18.1627C84.1006 17.4634 83.5504 16.9171 82.8589 16.522H82.8569Z" fill="black"/>
<path d="M97.4509 16.7719C96.5152 16.2101 95.4633 15.9292 94.2933 15.9292C93.3189 15.9292 92.453 16.1268 91.6937 16.522C91.0873 16.8377 90.5779 17.2523 90.1652 17.7598V16.2023H87.7031V33.0981H90.2795V27.1027C90.6573 27.5637 91.1222 27.9356 91.682 28.2185C92.4646 28.6136 93.3344 28.8112 94.2933 28.8112C95.4788 28.8112 96.5346 28.5265 97.4625 27.957C98.3904 27.3874 99.1226 26.6145 99.6631 25.6421C100.204 24.6696 100.473 23.5751 100.473 22.3586C100.473 21.1421 100.204 20.0476 99.6631 19.0751C99.1226 18.1027 98.3865 17.3336 97.4509 16.7719ZM97.3153 24.4449C96.9879 25.0609 96.5443 25.5433 95.9806 25.8919C95.4169 26.2426 94.7718 26.4169 94.0415 26.4169C93.3112 26.4169 92.6855 26.2426 92.114 25.8919C91.5445 25.5433 91.0951 25.059 90.7677 24.4449C90.4403 23.8289 90.2776 23.1335 90.2776 22.3586C90.2776 21.5837 90.4403 20.8922 90.7677 20.2839C91.0951 19.6756 91.5426 19.1972 92.114 18.8485C92.6835 18.4998 93.3267 18.3235 94.0415 18.3235C94.7563 18.3235 95.4169 18.4979 95.9806 18.8485C96.5423 19.1972 96.9879 19.6776 97.3153 20.2839C97.6426 20.8922 97.8054 21.5837 97.8054 22.3586C97.8054 23.1335 97.6426 23.8289 97.3153 24.4449Z" fill="black"/>
<path d="M105.182 11.2764H102.605V28.5383H105.182V11.2764Z" fill="black"/>
<path d="M112.788 25.2643L109.313 16.2023H106.555L111.46 28.5284L111.115 29.3129C110.842 29.9502 110.534 30.4268 110.191 30.7387C109.848 31.0505 109.321 31.2055 108.606 31.2055C108.362 31.2055 108.112 31.1861 107.853 31.1493C107.595 31.1106 107.374 31.0699 107.192 31.0234V33.2356C107.436 33.3422 107.705 33.4216 108.002 33.4739C108.298 33.5282 108.598 33.5533 108.903 33.5533C109.693 33.5533 110.381 33.4022 110.966 33.0981C111.551 32.794 112.06 32.3639 112.494 31.8099C112.928 31.2539 113.288 30.6127 113.577 29.8824L119.026 16.2004H116.244L112.788 25.2623V25.2643Z" fill="black"/>
<path d="M128.769 16.5222C128.07 16.127 127.264 15.9294 126.351 15.9294C125.439 15.9294 124.695 16.1309 124.025 16.5338C123.602 16.7876 123.252 17.1169 122.975 17.5198V11.2764H120.398V28.5383H122.975V21.2643C122.975 20.656 123.093 20.1311 123.329 19.6913C123.564 19.2516 123.891 18.9126 124.31 18.6763C124.728 18.4419 125.195 18.3237 125.712 18.3237C126.229 18.3237 126.715 18.4419 127.126 18.6763C127.537 18.9126 127.858 19.2458 128.095 19.6797C128.329 20.1136 128.447 20.6425 128.447 21.2643V28.5383H131.002V20.5572C131.002 19.6603 130.805 18.8622 130.41 18.1629C130.014 17.4636 129.466 16.9173 128.767 16.5222H128.769Z" fill="black"/>
<path d="M143.396 17.7191C142.895 17.1632 142.279 16.7273 141.55 16.4077C140.82 16.088 139.991 15.9292 139.065 15.9292C137.91 15.9292 136.876 16.2062 135.964 16.7622C135.051 17.3181 134.325 18.0736 133.786 19.0306C133.246 19.9895 132.977 21.0917 132.977 22.3373C132.977 23.5829 133.242 24.6522 133.775 25.6324C134.307 26.6126 135.047 27.3894 135.999 27.9589C136.948 28.5284 138.04 28.8132 139.27 28.8132C140.105 28.8132 140.878 28.6795 141.585 28.4141C142.292 28.1487 142.901 27.7826 143.41 27.3196C143.92 26.8567 144.295 26.3356 144.539 25.7564L142.441 24.7297C142.137 25.2624 141.723 25.6944 141.198 26.0295C140.675 26.3646 140.039 26.5312 139.294 26.5312C138.548 26.5312 137.914 26.3569 137.345 26.0062C136.775 25.6576 136.334 25.1713 136.022 24.5476C135.807 24.1195 135.687 23.639 135.656 23.1121H144.834C144.88 22.9301 144.909 22.7325 144.925 22.5194C144.94 22.3063 144.948 22.101 144.948 21.9034C144.948 21.0975 144.814 20.3381 144.549 19.6233C144.284 18.9085 143.898 18.2751 143.396 17.7191ZM136.008 20.0669C136.297 19.4354 136.708 18.9492 137.24 18.6083C137.773 18.2654 138.381 18.0949 139.065 18.0949C139.749 18.0949 140.345 18.2654 140.855 18.6083C141.364 18.9511 141.744 19.4141 141.996 19.9991C142.137 20.3265 142.211 20.681 142.226 21.0588H135.72C135.778 20.6985 135.875 20.3672 136.012 20.0669H136.008Z" fill="black"/>
<path d="M154.6 16.4755C153.848 16.1113 152.984 15.9292 152.012 15.9292C151.237 15.9292 150.503 16.059 149.811 16.3166C149.119 16.5743 148.515 16.9365 147.998 17.3995C147.481 17.8625 147.109 18.3991 146.88 19.0073L149.023 20.0786C149.265 19.5168 149.642 19.0558 150.152 18.6993C150.661 18.3429 151.258 18.1627 151.942 18.1627C152.686 18.1627 153.284 18.3564 153.732 18.7439C154.181 19.1313 154.406 19.6292 154.406 20.2374V20.7081L150.483 21.3551C149.54 21.5082 148.757 21.7658 148.133 22.13C147.51 22.4942 147.051 22.9436 146.754 23.4744C146.458 24.0071 146.309 24.6076 146.309 25.2759C146.309 25.9907 146.483 26.6106 146.834 27.1337C147.182 27.6586 147.672 28.0693 148.304 28.3657C148.935 28.6621 149.668 28.8112 150.504 28.8112C151.204 28.8112 151.839 28.7124 152.409 28.5148C152.978 28.3173 153.488 28.0364 153.937 27.6703C154.148 27.4978 154.342 27.308 154.518 27.1046V28.5362H156.98V20.2355C156.98 19.3851 156.771 18.6354 156.353 17.9903C155.934 17.3433 155.349 16.8377 154.596 16.4735L154.6 16.4755ZM153.974 25.1055C153.685 25.6149 153.278 26.0217 152.753 26.3259C152.229 26.63 151.616 26.7811 150.917 26.7811C150.355 26.7811 149.894 26.6319 149.538 26.3356C149.181 26.0392 149.001 25.6556 149.001 25.1849C149.001 24.7142 149.162 24.2996 149.48 23.9877C149.799 23.6759 150.301 23.4589 150.985 23.3369L154.406 22.7383V23.4047C154.406 24.0284 154.261 24.5941 153.972 25.1035L153.974 25.1055Z" fill="black"/>
<path d="M162.26 11.2764H159.684V28.5383H162.26V11.2764Z" fill="black"/>
<path d="M170.59 26.3955C170.104 26.3955 169.709 26.3161 169.405 26.1553C169.101 25.9965 168.88 25.7679 168.744 25.4715C168.607 25.1751 168.539 24.8148 168.539 24.3886V18.5288H171.344V16.2023H168.539V13.374H165.963V14.3329C165.963 14.9102 165.804 15.3673 165.484 15.7005C165.165 16.0357 164.717 16.2023 164.14 16.2023H163.797V18.5288H165.963V24.5029C165.963 25.826 166.319 26.8527 167.036 27.5811C167.751 28.3114 168.754 28.6756 170.046 28.6756C170.244 28.6756 170.472 28.6601 170.73 28.6291C170.988 28.5981 171.224 28.569 171.437 28.538V26.3258C171.299 26.3413 171.156 26.3568 171.003 26.3703C170.852 26.3858 170.714 26.3936 170.592 26.3936L170.59 26.3955Z" fill="black"/>
<path d="M183.408 18.1629C183.012 17.4636 182.464 16.9173 181.765 16.5222C181.066 16.127 180.26 15.9294 179.347 15.9294C178.435 15.9294 177.691 16.1309 177.021 16.5338C176.599 16.7876 176.248 17.1169 175.971 17.5198V11.2764H173.395V28.5383H175.971V21.2643C175.971 20.656 176.089 20.1311 176.325 19.6913C176.56 19.2516 176.887 18.9126 177.306 18.6763C177.724 18.4419 178.191 18.3237 178.708 18.3237C179.225 18.3237 179.712 18.4419 180.122 18.6763C180.533 18.9126 180.854 19.2458 181.091 19.6797C181.325 20.1136 181.443 20.6425 181.443 21.2643V28.5383H183.998V20.5572C183.998 19.6603 183.801 18.8622 183.406 18.1629H183.408Z" fill="black"/>
<path d="M20.5183 41.0365C31.8502 41.0365 41.0365 31.8502 41.0365 20.5183C41.0365 9.18634 31.8502 0 20.5183 0C9.18634 0 0 9.18634 0 20.5183C0 31.8502 9.18634 41.0365 20.5183 41.0365Z" fill="#0E594A"/>
<path d="M16.2185 15.9584C16.1139 17.2447 16.5459 18.4806 17.4157 19.4104L24.6257 27.1338C24.9957 26.4171 25.1914 25.5938 25.1585 24.7182C25.112 23.5269 24.5928 22.4033 23.785 21.5316L16.8268 14.0542C16.4916 14.6257 16.2747 15.2707 16.2185 15.9565" fill="#00E6B8"/>
<path d="M11.1882 7.92309C13.2901 7.98702 15.264 8.73669 16.868 10.054C17.4956 9.66846 18.1852 9.37595 18.9194 9.1958C22.5864 8.30664 26.1488 10.331 27.4429 13.6396C27.5281 13.8604 27.4196 14.1084 27.1949 14.182L25.4302 14.7632C25.066 14.8833 24.849 14.7903 24.7696 14.5985C23.987 12.7137 21.9859 11.5397 19.8783 11.9117C19.5606 11.9679 19.2584 12.0628 18.9678 12.1829L25.8311 19.5615C27.1426 20.9698 27.9485 22.8043 27.993 24.7356C28.0317 26.386 27.5513 27.9183 26.7125 29.1813C27.7276 29.9078 28.9286 30.3204 30.1975 30.3591C33.8897 30.4715 36.8729 28.2031 38.165 24.6484C38.4691 23.3215 38.6357 21.9403 38.6357 20.5204C38.6357 10.4414 30.5229 2.26855 20.5176 2.26855C15.2582 2.26855 10.5238 4.52921 7.21322 8.13618C7.07762 8.2834 7.2229 8.51198 7.41275 8.44999C8.60797 8.0645 9.87873 7.88435 11.1863 7.92503" fill="#00E6B8"/>
<path d="M30.1112 33.2123C28.1199 33.1503 26.2447 32.4568 24.7027 31.2306C23.4203 32.1217 21.859 32.6273 20.1872 32.575C17.0355 32.4781 14.124 30.3841 13.1496 27.0812C13.0837 26.8604 13.2251 26.6338 13.4498 26.5795L15.2533 26.1533C15.6272 26.0662 15.8345 26.1766 15.8965 26.3742C16.5241 28.3598 18.3334 29.6596 20.2725 29.7196C21.1229 29.7448 21.9287 29.5433 22.63 29.1656L15.3521 21.3686C13.8683 19.7821 13.1651 17.6551 13.4188 15.4564C13.5661 14.1934 14.0407 13.0156 14.7555 12.0199C13.6939 11.2528 12.4328 10.8189 11.0981 10.7782C7.13667 10.6562 3.95975 13.159 2.72772 17.0352C2.51076 18.1626 2.39453 19.3268 2.39453 20.5182C2.39453 30.5991 10.5073 38.77 20.5127 38.77C25.6636 38.77 30.3108 36.6023 33.6097 33.1251C33.7453 32.9818 33.6097 32.7532 33.4199 32.8074C32.3622 33.1077 31.2503 33.2491 30.1093 33.2142" fill="#00E6B8"/>
</g>
<defs>
<clipPath id="clip0_53_1163">
<rect width="184" height="41.0365" fill="white"/>
</clipPath>
</defs>
</svg>
