<svg xmlns="http://www.w3.org/2000/svg" width="24.296" height="13.402" viewBox="0 0 24.296 13.402"><defs><style>.a{fill:#0075c9}</style></defs><path class="a" d="M13.054 3.955a4.717 4.717 0 00-4.168 2.507 4.718 4.718 0 00-7-1.564V.924A.944.944 0 000 .924v7.828a4.717 4.717 0 008.884 2.133 4.718 4.718 0 104.168-6.929zM4.718 11.5a2.83 2.83 0 112.83-2.83 2.83 2.83 0 01-2.83 2.83zm8.336 0a2.83 2.83 0 112.83-2.83 2.83 2.83 0 01-2.83 2.83z"/><path class="a" d="M24.119 11.907l-2.416-3.23 2.416-3.23a.944.944 0 00-1.509-1.133l-2.085 2.788-2.085-2.788a.944.944 0 00-1.509 1.133l2.416 3.23-2.416 3.23a.944.944 0 001.509 1.133l2.085-2.788 2.085 2.788a.944.944 0 001.509-1.133z"/></svg>