<svg width="14" height="18" viewBox="0 0 14 18" fill="none" xmlns="http://www.w3.org/2000/svg">
  <path fill-rule="evenodd" clip-rule="evenodd" d="M12.738 7.4c0-3.093-2.452-5.6-5.478-5.6-3.025 0-5.477 2.507-5.477 5.6 0 2.788 1.798 5.657 5.477 8.593 3.68-2.936 5.478-5.805 5.478-8.593ZM7.26 17C3.087 13.8 1 10.6 1 7.4 1 3.865 3.803 1 7.26 1s6.26 2.865 6.26 6.4c0 3.2-2.087 6.4-6.26 9.6Zm0-8c.865 0 1.565-.716 1.565-1.6 0-.884-.7-1.6-1.565-1.6-.864 0-1.565.716-1.565 1.6 0 .884.701 1.6 1.565 1.6Zm0 .8c-1.296 0-2.348-1.075-2.348-2.4S5.964 5 7.26 5c1.296 0 2.348 1.075 2.348 2.4S8.556 9.8 7.26 9.8Z" fill="#727272"/>
  <path d="m7.26 15.993-.156.195.156.125.156-.125-.156-.195Zm0 1.007-.152.198.152.117.152-.117L7.26 17Zm5.728-9.6c0-3.226-2.56-5.85-5.728-5.85v.5c2.882 0 5.228 2.39 5.228 5.35h.5ZM7.26 1.55c-3.168 0-5.727 2.624-5.727 5.85h.5c0-2.96 2.345-5.35 5.227-5.35v-.5ZM1.533 7.4c0 2.902 1.87 5.835 5.571 8.788l.312-.39C3.76 12.877 2.033 10.073 2.033 7.4h-.5Zm5.883 8.788c3.7-2.953 5.572-5.886 5.572-8.788h-.5c0 2.674-1.726 5.479-5.384 8.397l.312.391Zm-.004.614C3.262 13.619 1.25 10.483 1.25 7.4h-.5c0 3.317 2.162 6.581 6.358 9.798l.304-.396ZM1.25 7.4c0-3.402 2.696-6.15 6.01-6.15v-.5C3.66.75.75 3.733.75 7.4h.5Zm6.01-6.15c3.314 0 6.01 2.748 6.01 6.15h.5c0-3.667-2.91-6.65-6.51-6.65v.5Zm6.01 6.15c0 3.083-2.011 6.219-6.162 9.402l.304.396c4.196-3.217 6.358-6.481 6.358-9.798h-.5ZM7.26 9.25c1.008 0 1.815-.834 1.815-1.85h-.5c0 .75-.594 1.35-1.315 1.35v.5ZM9.075 7.4c0-1.016-.807-1.85-1.815-1.85v.5c.721 0 1.315.6 1.315 1.35h.5ZM7.26 5.55c-1.007 0-1.815.834-1.815 1.85h.5c0-.75.594-1.35 1.315-1.35v-.5ZM5.445 7.4c0 1.016.808 1.85 1.815 1.85v-.5c-.72 0-1.315-.6-1.315-1.35h-.5ZM7.26 9.55c-1.153 0-2.098-.957-2.098-2.15h-.5c0 1.458 1.158 2.65 2.598 2.65v-.5ZM5.162 7.4c0-1.193.945-2.15 2.098-2.15v-.5c-1.44 0-2.598 1.192-2.598 2.65h.5ZM7.26 5.25c1.153 0 2.098.957 2.098 2.15h.5c0-1.458-1.158-2.65-2.598-2.65v.5ZM9.358 7.4c0 1.193-.945 2.15-2.098 2.15v.5c1.44 0 2.598-1.192 2.598-2.65h-.5Z" fill="#727272"/>
</svg>
