<svg width="20" height="20" viewBox="0 0 20 20" fill="none" xmlns="http://www.w3.org/2000/svg">
<path d="M19.7504 17.3507L14.1492 11.7495C15.1539 10.1547 15.5356 8.2456 15.2215 6.38708C14.9074 4.52855 13.9194 2.85095 12.4464 1.67489C10.9735 0.498832 9.11876 -0.0932005 7.23681 0.0119414C5.35486 0.117083 3.57765 0.912026 2.24484 2.24484C0.912026 3.57765 0.117083 5.35486 0.0119414 7.23681C-0.0932005 9.11876 0.498832 10.9735 1.67489 12.4464C2.85095 13.9194 4.52855 14.9074 6.38708 15.2215C8.2456 15.5356 10.1547 15.1539 11.7495 14.1492L17.3507 19.7504C17.4293 19.8295 17.5228 19.8923 17.6257 19.9351C17.7287 19.9779 17.8391 20 17.9506 20C18.0621 20 18.1726 19.9779 18.2755 19.9351C18.3785 19.8923 18.472 19.8295 18.5506 19.7504L19.7504 18.5506C19.8295 18.472 19.8923 18.3785 19.9351 18.2755C19.9779 18.1726 20 18.0621 20 17.9506C20 17.8391 19.9779 17.7287 19.9351 17.6257C19.8923 17.5228 19.8295 17.4293 19.7504 17.3507ZM7.68763 12.7826C6.67995 12.7826 5.6949 12.4837 4.85704 11.9239C4.01918 11.3641 3.36615 10.5683 2.98053 9.63737C2.59491 8.7064 2.49401 7.68198 2.6906 6.69366C2.88719 5.70534 3.37243 4.79751 4.08497 4.08497C4.79751 3.37243 5.70534 2.88719 6.69366 2.6906C7.68198 2.49401 8.7064 2.59491 9.63737 2.98053C10.5683 3.36615 11.3641 4.01918 11.9239 4.85704C12.4837 5.6949 12.7826 6.67995 12.7826 7.68763C12.781 9.03841 12.2437 10.3334 11.2886 11.2886C10.3334 12.2437 9.03841 12.781 7.68763 12.7826Z" fill="#FFFFFF"/>
</svg>
