<svg width="198" height="64" viewBox="0 0 158 51" xmlns="http://www.w3.org/2000/svg"><path d="M12.811 43.945a14.903 14.903 0 010-29.269V2.652L15.463 0l2.651 2.652v11.99a14.784 14.784 0 015.832 2.342l8.224-8.182h3.751v3.751l-8.131 8.148a14.821 14.821 0 012.517 5.874h11.48l2.643 2.652-2.643 2.643H24.685c.24-.838.36-1.705.36-2.576a9.457 9.457 0 10-6.872 9.121V50.39h-5.37v-6.444" fill="#0047ba"/><path d="M33.32 41.738a5.295 5.295 0 00-2.61-.671 3.97 3.97 0 000 7.938 5.32 5.32 0 002.694-.587l-.151 1.451a5.554 5.554 0 01-2.728.495 5.368 5.368 0 01-5.67-5.362 5.37 5.37 0 015.67-5.362 6.243 6.243 0 013.072.68l-.277 1.418zm3.004 1.057h-1.52v7.485h1.52v-7.485zm4.968 7.62h-.613l-3.122-7.62h1.52l1.375 3.357c.193.478.412 1.141.596 1.678.176-.562.395-1.225.588-1.678l1.359-3.357h1.401l-3.104 7.62zm6-7.62h-1.52v7.485h1.52v-7.485zm3.281 7.905a1.98 1.98 0 01-1.486-2.056V38.65h1.544v9.793a1.259 1.259 0 001.007 1.233L50.573 50.7zm8.349-.336a5.161 5.161 0 01-2.677-.696l-.184-1.678a5.035 5.035 0 002.962.99c1.133 0 1.896-.63 1.896-1.578 0-.948-.545-1.485-1.787-1.88-1.846-.595-2.82-1.535-2.82-3.054s1.075-2.828 3.282-2.828a4.196 4.196 0 012.265.596l-.31 1.343a3.818 3.818 0 00-2.023-.613 1.504 1.504 0 00-1.678 1.385c0 .755.562 1.225 1.678 1.586 1.805.612 3.03 1.451 3.03 3.356 0 1.905-1.242 3.105-3.583 3.105m11.337-4.33l-.84.84h-4.506a2.518 2.518 0 002.651 2.231 3.784 3.784 0 002.182-.612l-.16 1.46c-.687.338-1.448.5-2.215.47a3.903 3.903 0 01-4.01-3.91 3.782 3.782 0 013.717-3.928 2.994 2.994 0 013.23 2.837 3.22 3.22 0 01-.05.612zm-3.106-2.165a2.282 2.282 0 00-2.148 1.788h3.768a.838.838 0 000-.202 1.679 1.679 0 00-1.678-1.586m8.266.462a2.406 2.406 0 00-.546-.06c-.982 0-2.005.462-2.005 2.191v3.784h-1.503v-7.485h1.502v1.52a2.106 2.106 0 012.165-1.612c.248 0 .494.036.73.11l-.343 1.552zm4.724 6.05h-.613l-3.121-7.62h1.519l1.367 3.357c.202.478.42 1.141.596 1.678.185-.562.394-1.225.596-1.678l1.36-3.357h1.4l-3.104 7.62zm5.378-7.62h-1.518v7.485h1.519v-7.485zm7.074 1.821a3.448 3.448 0 00-1.98-.562 2.517 2.517 0 100 5.035 4.195 4.195 0 001.947-.462l-.151 1.385c-.61.26-1.268.386-1.93.37a3.842 3.842 0 110-7.679c.82-.029 1.633.16 2.358.546l-.244 1.367zm7.628 1.452l-.839.84h-4.506a2.517 2.517 0 002.66 2.231 3.81 3.81 0 002.182-.612l-.168 1.46c-.688.338-1.45.5-2.215.47a3.904 3.904 0 01-4.011-3.91 3.786 3.786 0 013.717-3.928 3.004 3.004 0 013.239 2.837 3.22 3.22 0 01-.05.612h-.009zm-3.096-2.165a2.274 2.274 0 00-2.148 1.788h3.76a.554.554 0 000-.202 1.678 1.678 0 00-1.68-1.586m11.421 1.72h-1.753v4.624h-1.544V39.749h3.356a2.962 2.962 0 110 5.874h-.059zm-.218-4.523h-1.477v3.197h1.477a1.613 1.613 0 001.67-2.26 1.617 1.617 0 00-1.67-.937zm10.296 4.968l-.839.84h-4.506a2.514 2.514 0 002.66 2.231 3.809 3.809 0 002.182-.612l-.168 1.46c-.688.338-1.449.5-2.215.47a3.903 3.903 0 01-4.011-3.91 3.775 3.775 0 011.033-2.745 3.78 3.78 0 012.684-1.183 2.991 2.991 0 012.936 1.683c.174.36.275.753.295 1.154.005.205-.009.41-.042.612h-.009zm-3.096-2.165a2.27 2.27 0 00-2.148 1.788h3.759a.568.568 0 000-.202 1.675 1.675 0 00-1.636-1.586m9.407 6.377v-4.808a1.547 1.547 0 00-1.737-1.57 1.626 1.626 0 00-1.796 1.57v4.809h-1.502v-7.486h1.368v.974a2.318 2.318 0 012.316-1.15 2.633 2.633 0 012.836 2.71v4.952h-1.485zm4.934.101a3.82 3.82 0 01-2.073-.545l-.184-1.57a3.79 3.79 0 002.291.84c.696 0 1.158-.378 1.158-.84 0-.46-.361-.788-1.041-1.04-1.452-.529-2.274-1.208-2.274-2.4 0-1.191 1.007-2.106 2.475-2.106a4.101 4.101 0 011.93.478l-.293 1.25a2.913 2.913 0 00-1.679-.478c-.612 0-1.007.336-1.007.84 0 .503.328.67 1.058.94 1.468.528 2.307 1.2 2.307 2.517s-.906 2.181-2.693 2.181m5.404-7.653h-1.519v7.485h1.519v-7.485zm5.026 7.662a3.919 3.919 0 113.961-3.91 3.814 3.814 0 01-.279 1.521 3.815 3.815 0 01-2.156 2.13 3.83 3.83 0 01-1.526.259zm0-6.487a2.612 2.612 0 00-2.746 3.008 2.606 2.606 0 002.004 2.142 2.61 2.61 0 003.184-2.54 2.528 2.528 0 00-.677-1.813 2.517 2.517 0 00-1.765-.797zm10.045 6.31v-4.808a1.547 1.547 0 00-1.737-1.57 1.63 1.63 0 00-1.648.922c-.097.203-.15.424-.156.648v4.809h-1.503v-7.486h1.377v.974a2.313 2.313 0 012.307-1.15 2.642 2.642 0 012.845 2.71v4.952h-1.485zm4.766.101a3.84 3.84 0 01-2.081-.545l-.185-1.57a3.8 3.8 0 002.299.84c.689 0 1.15-.378 1.15-.84 0-.46-.361-.788-1.04-1.04-1.452-.529-2.275-1.208-2.275-2.4 0-1.191 1.007-2.106 2.518-2.106a4.101 4.101 0 011.93.478l-.294 1.25a2.885 2.885 0 00-1.678-.478c-.613 0-1.007.336-1.007.84 0 .503.327.67 1.057.94 1.469.528 2.308 1.2 2.308 2.517s-.906 2.181-2.685 2.181M36.483 40.589a.914.914 0 11-1.829 0 .914.914 0 011.83 0zm10.968 0a.915.915 0 11-1.829 0 .915.915 0 011.83 0zm38.214 0a.914.914 0 11-1.828 0 .914.914 0 011.828 0zm49.644 0a.919.919 0 01-.566.86.923.923 0 11-.348-1.775.913.913 0 01.914.915z" fill="#0047ba"/></svg>